HIERARCHY
ROOT Hips
{
	OFFSET 0.000000 35.082581 0.000000
	CHANNELS 6 Xposition Yposition Zposition Xrotation Yrotation Zrotation 
	JOINT Spine
	{
		OFFSET 0.000000 6.876099 0.125700
		CHANNELS 3 Xrotation Yrotation Zrotation
		JOINT Spine1
		{
			OFFSET 0.000000 5.730043 0.104720
			CHANNELS 3 Xrotation Yrotation Zrotation
			JOINT Spine1_split
			{
				OFFSET 0.000000 5.730043 0.104720
				CHANNELS 3 Xrotation Yrotation Zrotation
				JOINT Spine2
				{
					OFFSET 0.000000 5.730043 0.104720
					CHANNELS 3 Xrotation Yrotation Zrotation
					JOINT Neck
					{
						OFFSET 0.000000 10.314075 0.188496
						CHANNELS 3 Xrotation Yrotation Zrotation
						JOINT Head
						{
							OFFSET 0.000000 7.643700 -2.377400
							CHANNELS 3 Xrotation Yrotation Zrotation
							JOINT HeadTop_End
							{
								OFFSET 0.000000 43.788605 -13.619600
								CHANNELS 3 Xrotation Yrotation Zrotation
								End Site
								{
									OFFSET 0.000000 0.000000 0.000000
								}
							}
						}
					}
					JOINT LeftShoulder
					{
						OFFSET 2.196100 4.412489 0.087492
						CHANNELS 3 Xrotation Yrotation Zrotation
						JOINT LeftShoulder_split
						{
							OFFSET 2.196100 4.412489 0.087492
							CHANNELS 3 Xrotation Yrotation Zrotation
							JOINT LeftArm
							{
								OFFSET 8.771219 -2.981674 -0.026999
								CHANNELS 3 Xrotation Yrotation Zrotation
								JOINT LeftForeArm
								{
									OFFSET 8.512804 0.000000 -0.000000
									CHANNELS 3 Xrotation Yrotation Zrotation
									JOINT LeftHand
									{
										OFFSET 18.484802 0.000000 -0.000000
										CHANNELS 3 Xrotation Yrotation Zrotation
										JOINT LeftHandThumb1
										{
											OFFSET 2.499420 -1.158070 2.653252
											CHANNELS 3 Xrotation Yrotation Zrotation
											JOINT LeftHandThumb2
											{
												OFFSET 2.370079 -1.368366 1.368366
												CHANNELS 3 Xrotation Yrotation Zrotation
												JOINT LeftHandThumb3
												{
													OFFSET 2.676727 -1.545410 1.545409
													CHANNELS 3 Xrotation Yrotation Zrotation
													JOINT LeftHandThumb4
													{
														OFFSET 1.692226 -0.977005 0.977007
														CHANNELS 3 Xrotation Yrotation Zrotation
														End Site
														{
															OFFSET 0.000000 0.000000 0.000000
														}
													}
												}
											}
										}
										JOINT LeftHandIndex1
										{
											OFFSET 7.924831 -0.457527 2.345128
											CHANNELS 3 Xrotation Yrotation Zrotation
											JOINT LeftHandIndex2
											{
												OFFSET 3.643303 0.000000 0.000000
												CHANNELS 3 Xrotation Yrotation Zrotation
												JOINT LeftHandIndex3
												{
													OFFSET 3.810799 0.000000 0.000000
													CHANNELS 3 Xrotation Yrotation Zrotation
													JOINT LeftHandIndex4
													{
														OFFSET 2.403702 0.000000 0.000000
														CHANNELS 3 Xrotation Yrotation Zrotation
														End Site
														{
															OFFSET 0.000000 0.000000 0.000000
														}
													}
												}
											}
										}
										JOINT LeftHandMiddle1
										{
											OFFSET 8.563995 0.000000 -0.000000
											CHANNELS 3 Xrotation Yrotation Zrotation
											JOINT LeftHandMiddle2
											{
												OFFSET 3.861618 0.000000 0.000000
												CHANNELS 3 Xrotation Yrotation Zrotation
												JOINT LeftHandMiddle3
												{
													OFFSET 3.701603 0.000000 0.000000
													CHANNELS 3 Xrotation Yrotation Zrotation
													JOINT LeftHandMiddle4
													{
														OFFSET 2.322544 0.000000 0.000000
														CHANNELS 3 Xrotation Yrotation Zrotation
														End Site
														{
															OFFSET 0.000000 0.000000 0.000000
														}
													}
												}
											}
										}
										JOINT LeftHandRing1
										{
											OFFSET 8.426460 -0.424637 -3.286992
											CHANNELS 3 Xrotation Yrotation Zrotation
											JOINT LeftHandRing2
											{
												OFFSET 3.126408 0.000000 0.000000
												CHANNELS 3 Xrotation Yrotation Zrotation
												JOINT LeftHandRing3
												{
													OFFSET 3.085026 0.000000 0.000000
													CHANNELS 3 Xrotation Yrotation Zrotation
													JOINT LeftHandRing4
													{
														OFFSET 1.644005 0.000000 0.000000
														CHANNELS 3 Xrotation Yrotation Zrotation
														End Site
														{
															OFFSET 0.000000 0.000000 0.000000
														}
													}
												}
											}
										}
									}
								}
							}
						}
					}
					JOINT RightShoulder
					{
						OFFSET -2.196100 4.412496 0.070690
						CHANNELS 3 Xrotation Yrotation Zrotation
						JOINT RightShoulder_split
						{
							OFFSET -2.196100 4.412496 0.070690
							CHANNELS 3 Xrotation Yrotation Zrotation
							JOINT RightArm
							{
								OFFSET -8.771282 -2.981682 -0.094208
								CHANNELS 3 Xrotation Yrotation Zrotation
								JOINT RightForeArm
								{
									OFFSET -8.494598 0.000000 0.000000
									CHANNELS 3 Xrotation Yrotation Zrotation
									JOINT RightHand
									{
										OFFSET -18.483803 0.000000 0.000001
										CHANNELS 3 Xrotation Yrotation Zrotation
										JOINT RightHandThumb1
										{
											OFFSET -2.527351 -1.008072 2.575253
											CHANNELS 3 Xrotation Yrotation Zrotation
											JOINT RightHandThumb2
											{
												OFFSET -2.321518 -1.340328 1.340329
												CHANNELS 3 Xrotation Yrotation Zrotation
												JOINT RightHandThumb3
												{
													OFFSET -2.657753 -1.534454 1.534455
													CHANNELS 3 Xrotation Yrotation Zrotation
													JOINT RightHandThumb4
													{
														OFFSET -1.807510 -1.043568 1.043567
														CHANNELS 3 Xrotation Yrotation Zrotation
														End Site
														{
															OFFSET 0.000000 0.000000 0.000000
														}
													}
												}
											}
										}
										JOINT RightHandIndex1
										{
											OFFSET -8.811420 0.015533 2.887987
											CHANNELS 3 Xrotation Yrotation Zrotation
											JOINT RightHandIndex2
											{
												OFFSET -3.537502 0.000000 0.000000
												CHANNELS 3 Xrotation Yrotation Zrotation
												JOINT RightHandIndex3
												{
													OFFSET -3.356201 0.000000 0.000000
													CHANNELS 3 Xrotation Yrotation Zrotation
													JOINT RightHandIndex4
													{
														OFFSET -1.933098 0.000000 0.000000
														CHANNELS 3 Xrotation Yrotation Zrotation
														End Site
														{
															OFFSET 0.000000 0.000000 0.000000
														}
													}
												}
											}
										}
										JOINT RightHandMiddle1
										{
											OFFSET -8.178135 0.000000 0.000000
											CHANNELS 3 Xrotation Yrotation Zrotation
											JOINT RightHandMiddle2
											{
												OFFSET -3.901302 0.000000 0.000000
												CHANNELS 3 Xrotation Yrotation Zrotation
												JOINT RightHandMiddle3
												{
													OFFSET -3.909599 0.000000 0.000000
													CHANNELS 3 Xrotation Yrotation Zrotation
													JOINT RightHandMiddle4
													{
														OFFSET -2.376003 0.000000 0.000000
														CHANNELS 3 Xrotation Yrotation Zrotation
														End Site
														{
															OFFSET 0.000000 0.000000 0.000000
														}
													}
												}
											}
										}
										JOINT RightHandRing1
										{
											OFFSET -7.559013 0.014137 -2.865403
											CHANNELS 3 Xrotation Yrotation Zrotation
											JOINT RightHandRing2
											{
												OFFSET -3.449306 0.000000 0.000000
												CHANNELS 3 Xrotation Yrotation Zrotation
												JOINT RightHandRing3
												{
													OFFSET -3.362106 0.000000 0.000000
													CHANNELS 3 Xrotation Yrotation Zrotation
													JOINT RightHandRing4
													{
														OFFSET -2.076401 0.000000 0.000000
														CHANNELS 3 Xrotation Yrotation Zrotation
														End Site
														{
															OFFSET 0.000000 0.000000 0.000000
														}
													}
												}
											}
										}
									}
								}
							}
						}
					}
				}
			}
		}
	}
	JOINT LeftUpLeg
	{
		OFFSET 10.205400 -3.823500 0.155100
		CHANNELS 3 Xrotation Yrotation Zrotation
		JOINT LeftLeg
		{
			OFFSET 0.708757 -12.982077 0.567790
			CHANNELS 3 Xrotation Yrotation Zrotation
			JOINT LeftFoot
			{
				OFFSET -0.708756 -10.717838 -2.184338
				CHANNELS 3 Xrotation Yrotation Zrotation
				JOINT LeftToeBase
				{
					OFFSET 0.108149 -7.191104 7.560241
					CHANNELS 3 Xrotation Yrotation Zrotation
					JOINT LeftToe_End
					{
						OFFSET 0.070230 0.081724 4.490308
						CHANNELS 3 Xrotation Yrotation Zrotation
						End Site
						{
							OFFSET 0.000000 0.000000 0.000000
						}
					}
				}
			}
		}
	}
	JOINT RightUpLeg
	{
		OFFSET -10.205400 -3.823500 0.005500
		CHANNELS 3 Xrotation Yrotation Zrotation
		JOINT RightLeg
		{
			OFFSET -0.708756 -12.982134 0.610632
			CHANNELS 3 Xrotation Yrotation Zrotation
			JOINT RightFoot
			{
				OFFSET 0.708754 -10.717769 -1.945823
				CHANNELS 3 Xrotation Yrotation Zrotation
				JOINT RightToeBase
				{
					OFFSET -0.108140 -7.191069 7.372968
					CHANNELS 3 Xrotation Yrotation Zrotation
					JOINT RightToe_End
					{
						OFFSET -0.070227 0.081735 4.479403
						CHANNELS 3 Xrotation Yrotation Zrotation
						End Site
						{
							OFFSET 0.000000 0.000000 0.000000
						}
					}
				}
			}
		}
	}
}
MOTION
Frames: 5
Frame Time: 0.016667
0.905588 45.985889 7.648556 -92.963205 0.995783 1.455517 3.826715 1.353129 -0.452782 17.173657 2.320173 -1.615369 0.000000 0.000000 0.000000 15.078722 2.910057 -1.904892 1.032854 0.830505 -3.592069 20.824676 3.567344 -10.053781 -0.000003 -0.000001 0.000002 0.987222 5.865645 -0.070362 0.000000 0.000000 0.000000 17.540368 -48.233642 -39.213444 0.000006 -78.452994 0.000045 -11.155065 -10.690890 -3.204732 6.590514 -4.958678 16.122643 7.178849 21.567321 2.147322 -3.980793 36.507491 21.976040 -0.000004 0.000007 -0.000002 0.659507 4.932349 -26.024448 0.169788 1.401621 -13.813550 0.169796 1.401610 -13.813553 -0.000001 0.000003 -0.000001 1.376910 6.461943 -24.994177 0.169869 1.401980 -13.817115 0.169792 1.401626 -13.813560 -0.000000 0.000003 0.000002 2.098702 8.644299 -21.209674 0.169788 1.401610 -13.813544 0.169794 1.401614 -13.813544 0.000001 -0.000003 -0.000001 1.003570 3.077427 16.318504 0.000000 0.000000 0.000000 -30.625332 39.526113 60.112563 -0.000007 122.611267 -0.000002 2.149670 2.949031 16.100989 -3.770206 1.684408 8.767267 7.918261 -27.751673 -3.100787 -3.337690 -26.655606 -19.006786 0.000003 0.000002 0.000005 -0.371394 2.206067 53.128360 1.396296 -3.326841 45.526660 0.376185 -1.835397 23.164149 0.000001 -0.000002 -0.000000 -1.457717 -4.435161 63.714668 1.929846 -3.776459 54.123071 1.822469 -3.696607 52.475770 -0.000002 0.000002 0.000003 0.113599 -5.549197 69.688044 2.144048 -3.922159 57.313272 2.117703 -3.905155 56.927216 -0.000004 0.000000 -0.000001 -9.562446 15.594473 21.130397 17.771090 3.557221 0.496278 18.370516 31.145369 -31.303153 2.018183 -0.000003 -0.000009 -0.000001 -0.000000 -0.000001 -12.783050 -13.932980 -17.452651 26.805873 -4.862296 -7.970251 26.480811 -31.776758 34.747768 -6.236854 0.000043 0.000022 0.000001 -0.000000 -0.000000 
0.891429 45.989540 7.666737 -92.871264 0.845467 1.372148 3.760243 1.331672 -0.422637 16.775788 2.298675 -1.540693 0.000000 0.000000 0.000000 14.708507 2.873932 -1.840031 1.206949 0.819802 -3.467084 21.720509 3.566617 -10.135175 -0.000001 0.000001 -0.000001 1.057886 5.646920 -0.072671 0.000000 0.000000 0.000000 17.692932 -47.941122 -39.648855 -0.000023 -78.307122 0.000009 -11.274804 -10.604928 -3.471087 6.590515 -4.958678 16.122644 7.178845 21.567323 2.147323 -3.980798 36.507491 21.976036 -0.000000 0.000001 -0.000003 0.659512 4.932356 -26.024457 0.169788 1.401620 -13.813546 0.169799 1.401613 -13.813550 -0.000002 -0.000003 -0.000003 1.376913 6.461950 -24.994181 0.169870 1.401981 -13.817116 0.169795 1.401625 -13.813563 -0.000001 -0.000002 0.000001 2.098702 8.644299 -21.209675 0.169788 1.401610 -13.813543 0.169793 1.401612 -13.813543 0.000002 0.000001 -0.000002 0.998594 3.039525 16.387488 0.000000 0.000000 0.000000 -30.378356 39.942379 60.251879 -0.000029 121.965541 0.000008 1.852884 2.561963 15.661368 -3.770208 1.684402 8.767255 7.918258 -27.751677 -3.100791 -3.337700 -26.655614 -19.006791 0.000001 0.000002 -0.000000 -0.371396 2.206071 53.128353 1.396290 -3.326844 45.526643 0.376198 -1.835392 23.164149 -0.000000 -0.000004 0.000001 -1.457713 -4.435167 63.714655 1.929825 -3.776460 54.123082 1.822476 -3.696602 52.475770 -0.000001 0.000002 -0.000000 0.113583 -5.549213 69.688038 2.144060 -3.922153 57.313265 2.117709 -3.905184 56.927216 -0.000004 0.000000 0.000000 -9.746455 15.528872 21.170511 17.946395 3.584571 0.539058 18.759629 31.194007 -31.385126 1.641700 0.000002 0.000001 -0.000000 0.000001 -0.000000 -12.985277 -13.935841 -17.291595 26.592969 -4.992740 -7.832472 26.828659 -31.544453 34.405698 -6.538103 0.000027 -0.000001 0.000001 -0.000001 0.000000 
0.878386 45.997017 7.688995 -92.660156 0.759769 1.285720 3.664148 1.280210 -0.394957 16.309068 2.217898 -1.457731 0.000000 0.000000 0.000000 14.304893 2.791179 -1.752529 1.371164 0.810480 -3.366240 22.599863 3.500710 -10.232346 -0.000001 0.000000 -0.000001 1.036061 5.431822 -0.068799 0.000000 0.000000 0.000000 17.978675 -47.538974 -40.193761 -0.000022 -78.189472 -0.000000 -11.401810 -10.483615 -3.731913 6.590515 -4.958677 16.122644 7.178848 21.567326 2.147320 -3.980787 36.507491 21.976045 -0.000003 -0.000001 -0.000002 0.659511 4.932353 -26.024453 0.169789 1.401620 -13.813547 0.169796 1.401614 -13.813552 0.000003 -0.000000 -0.000000 1.376913 6.461951 -24.994177 0.169869 1.401978 -13.817113 0.169792 1.401627 -13.813563 0.000000 0.000000 0.000000 2.098705 8.644300 -21.209672 0.169789 1.401615 -13.813544 0.169798 1.401612 -13.813545 -0.000003 -0.000000 0.000003 1.002754 3.007379 16.447019 0.000000 0.000000 0.000000 -30.000715 40.337670 60.294274 -0.000008 121.436747 -0.000009 1.901618 2.536342 15.603106 -3.770197 1.684407 8.767249 7.918257 -27.751678 -3.100794 -3.337686 -26.655616 -19.006799 0.000001 -0.000002 -0.000002 -0.371390 2.206066 53.128333 1.396290 -3.326838 45.526667 0.376201 -1.835390 23.164153 0.000000 0.000002 0.000000 -1.457710 -4.435159 63.714648 1.929829 -3.776466 54.123082 1.822476 -3.696600 52.475770 -0.000001 0.000000 0.000003 0.113502 -5.549153 69.688044 2.144048 -3.922167 57.313265 2.117717 -3.905158 56.927216 -0.000001 -0.000001 -0.000001 -9.999348 15.433506 21.209838 18.052856 3.609777 0.548444 19.342758 31.254478 -31.486021 0.988549 -0.000015 0.000040 0.000000 -0.000001 0.000000 -13.277381 -13.913396 -17.167441 26.280782 -5.104814 -7.622465 27.519252 -31.320276 34.116484 -7.028506 0.000058 -0.000012 -0.000001 -0.000001 0.000001 
0.864594 46.010406 7.697865 -92.241507 0.765174 1.175042 3.560735 1.178158 -0.360271 15.819693 2.050239 -1.351606 0.000000 0.000000 0.000000 13.873229 2.617392 -1.626179 1.388079 0.796730 -3.274178 23.145660 3.425962 -10.301205 -0.000000 -0.000000 -0.000000 1.007912 5.213132 -0.072448 0.000000 0.000000 0.000000 18.126070 -46.854773 -41.156592 -0.000025 -78.131517 0.000006 -11.365471 -10.354279 -4.045949 6.590516 -4.958681 16.122643 7.178846 21.567320 2.147327 -3.980797 36.507491 21.976031 -0.000004 0.000001 -0.000000 0.659508 4.932349 -26.024455 0.169790 1.401625 -13.813549 0.169799 1.401615 -13.813549 -0.000000 -0.000000 -0.000000 1.376909 6.461941 -24.994181 0.169872 1.401976 -13.817116 0.169791 1.401627 -13.813566 0.000003 0.000003 -0.000000 2.098703 8.644293 -21.209674 0.169789 1.401614 -13.813544 0.169793 1.401607 -13.813544 -0.000001 0.000001 -0.000001 0.964792 2.960584 16.488473 0.000000 0.000000 0.000000 -29.252140 40.564862 59.893116 -0.000021 121.381423 -0.000002 2.367314 2.832866 15.788923 -3.770186 1.684408 8.767257 7.918258 -27.751672 -3.100789 -3.337688 -26.655611 -19.006793 0.000000 -0.000003 0.000001 -0.371395 2.206057 53.128343 1.396307 -3.326831 45.526667 0.376199 -1.835387 23.164139 0.000001 0.000002 0.000000 -1.457705 -4.435174 63.714655 1.929830 -3.776451 54.123078 1.822480 -3.696607 52.475763 0.000001 -0.000002 -0.000001 0.113344 -5.549120 69.688031 2.144056 -3.922159 57.313272 2.117694 -3.905162 56.927212 -0.000005 0.000001 -0.000001 -10.401310 15.307723 21.228870 18.192482 3.754996 0.462866 20.053784 31.307565 -31.521996 0.245356 -0.000003 -0.000003 -0.000001 -0.000001 -0.000000 -13.825788 -13.842432 -16.858824 26.021276 -4.797098 -7.684709 28.902140 -31.546882 34.267134 -7.765163 0.000071 0.000004 0.000000 0.000001 -0.000000 
0.840296 46.020493 7.723026 -91.607351 0.856285 1.049256 3.455738 1.059945 -0.333895 15.322319 1.836153 -1.235604 0.000000 0.000000 0.000000 13.427522 2.371646 -1.472053 1.467851 0.767052 -3.162884 23.529961 3.337672 -10.285325 -0.000000 0.000000 0.000001 0.975464 4.991306 -0.080155 0.000000 0.000000 0.000000 18.149368 -45.959260 -42.436546 0.000008 -78.113820 0.000036 -11.178033 -10.210908 -4.433497 6.590512 -4.958678 16.122650 7.178845 21.567320 2.147325 -3.980789 36.507491 21.976041 -0.000003 0.000003 -0.000003 0.659508 4.932353 -26.024455 0.169789 1.401620 -13.813547 0.169799 1.401614 -13.813550 0.000003 -0.000004 -0.000002 1.376909 6.461949 -24.994183 0.169871 1.401974 -13.817113 0.169791 1.401625 -13.813562 0.000001 -0.000001 0.000000 2.098703 8.644296 -21.209670 0.169788 1.401613 -13.813544 0.169796 1.401610 -13.813544 0.000001 -0.000001 -0.000003 0.920520 2.913159 16.512413 0.000000 0.000000 0.000000 -28.275979 40.716103 59.228948 -0.000016 121.798761 -0.000018 2.737754 2.715668 15.784021 -3.770203 1.684410 8.767254 7.918258 -27.751677 -3.100793 -3.337695 -26.655602 -19.006791 0.000004 0.000003 -0.000001 -0.371394 2.206068 53.128360 1.396316 -3.326840 45.526667 0.376168 -1.835387 23.164156 -0.000000 0.000001 -0.000001 -1.457718 -4.435162 63.714668 1.929834 -3.776467 54.123085 1.822467 -3.696603 52.475759 0.000002 0.000001 0.000001 0.113119 -5.549021 69.688051 2.144061 -3.922158 57.313265 2.117702 -3.905152 56.927223 0.000001 -0.000000 -0.000003 -11.141981 15.069202 21.295891 18.641401 3.936536 0.236933 20.790102 31.366192 -31.501959 -0.570073 0.000012 -0.000006 -0.000002 -0.000003 0.000001 -14.371944 -13.785486 -16.522740 25.753648 -4.869686 -7.764579 29.715370 -31.575821 34.355752 -8.215209 0.000050 0.000026 -0.000001 -0.000003 0.000001 
